<?xml version="1.0" encoding="UTF-8" standalone="no"?>
<!-- Created with Inkscape (http://www.inkscape.org/) -->

<svg
   xmlns:dc="http://purl.org/dc/elements/1.1/"
   xmlns:cc="http://creativecommons.org/ns#"
   xmlns:rdf="http://www.w3.org/1999/02/22-rdf-syntax-ns#"
   xmlns:svg="http://www.w3.org/2000/svg"
   xmlns="http://www.w3.org/2000/svg"
   xmlns:sodipodi="http://sodipodi.sourceforge.net/DTD/sodipodi-0.dtd"
   xmlns:inkscape="http://www.inkscape.org/namespaces/inkscape"
   width="149.5069mm"
   height="109.65443mm"
   viewBox="0 0 149.50689 109.65443"
   version="1.1"
   id="svg5251"
   inkscape:version="0.92.2 5c3e80d, 2017-08-06"
   sodipodi:docname="fish.svg">
  <defs
     id="defs5245" />
  <sodipodi:namedview
     id="base"
     pagecolor="#ffffff"
     bordercolor="#666666"
     borderopacity="1.0"
     inkscape:pageopacity="0.0"
     inkscape:pageshadow="2"
     inkscape:zoom="0.81757812"
     inkscape:cx="344.47896"
     inkscape:cy="137.71201"
     inkscape:document-units="mm"
     inkscape:current-layer="layer1"
     showgrid="false"
     fit-margin-top="0"
     fit-margin-left="0"
     fit-margin-right="0"
     fit-margin-bottom="0"
     inkscape:window-width="1440"
     inkscape:window-height="791"
     inkscape:window-x="20"
     inkscape:window-y="53"
     inkscape:window-maximized="0" />
  <metadata
     id="metadata5248">
    <rdf:RDF>
      <cc:Work
         rdf:about="">
        <dc:format>image/svg+xml</dc:format>
        <dc:type
           rdf:resource="http://purl.org/dc/dcmitype/StillImage" />
        <dc:title></dc:title>
      </cc:Work>
    </rdf:RDF>
  </metadata>
  <g
     inkscape:label="Layer 1"
     inkscape:groupmode="layer"
     id="layer1"
     transform="translate(32.408675,-138.57112)">
    <g
       id="g6047"
       transform="translate(-115.56236,-52.828167)">
      <path
         style="fill:#fcfcee;stroke-width:0.35277775"
         d="m 162.54478,300.72613 c -0.85504,-0.16785 -2.40285,-0.55176 -3.43959,-0.85315 -2.58097,-0.75031 -2.48797,-1.3985 0.49628,-3.45895 3.63501,-2.50977 5.30718,-4.0322 4.67431,-4.25572 -8.34121,-2.94602 -12.05724,-4.74466 -17.861,-8.64509 -7.44243,-5.00171 -13.08331,-10.52683 -17.38557,-17.02882 l -2.01853,-3.0506 -1.50469,2.55238 c -4.19243,7.11158 -11.4192,13.30894 -19.10541,16.38398 -5.62953,2.25222 -8.022597,2.68122 -14.973408,2.68427 -3.4925,0.002 -6.786562,-0.1193 -7.320138,-0.26852 -1.254462,-0.35081 -1.265546,-1.27529 -0.065,-5.42187 3.3098,-11.43181 12.293993,-20.94263 23.965696,-25.37049 1.70946,-0.64851 1.98093,-0.85185 1.41111,-1.05696 -12.170416,-4.38083 -21.343767,-13.70517 -24.971119,-25.38215 -1.160716,-3.73651 -1.369035,-4.84664 -1.013097,-5.39878 0.717031,-1.11228 8.346569,-1.44231 13.920447,-0.60215 11.043679,1.66462 21.291779,8.10474 27.317859,17.16712 1.42014,2.13569 1.71393,2.40959 2.0231,1.8861 7.35592,-12.45497 20.12605,-23.46515 33.55416,-28.92981 2.27543,-0.92601 3.89656,-1.79034 3.96503,-2.11405 0.0637,-0.30117 -0.224,-1.59946 -0.63934,-2.88507 -1.23887,-3.83472 -3.6966,-8.32089 -6.74785,-12.31705 -2.02975,-2.65832 -1.90614,-2.967 1.18594,-2.96139 5.11894,0.009 11.95698,1.99658 16.76893,4.87347 4.46622,2.67018 8.55362,7.08336 10.27082,11.08941 0.61809,1.44196 0.8778,1.67797 2.22005,2.01749 6.09311,1.54124 13.58046,5.04383 20.36042,9.52464 13.88466,9.17622 24.30033,22.19066 24.98049,31.21325 0.24572,3.25947 -0.47289,6.08714 -2.69329,10.59793 -4.11028,8.35014 -11.30149,15.78168 -22.60673,23.36222 -4.04702,2.71367 -6.62949,4.09305 -10.83461,5.78714 -3.53387,1.42366 -8.74297,3.00948 -10.92033,3.3245 -1.45923,0.21112 -2.03505,0.56233 -3.99783,2.43845 -2.69726,2.57816 -5.71631,4.12662 -9.59832,4.92295 -2.9111,0.59717 -6.8923,0.67127 -9.41879,0.17532 z"
         id="path6085"
         inkscape:connector-curvature="0" />
      <path
         style="fill:#fae7e9;stroke-width:0.35277775"
         d="m 163.28513,300.72432 c -2.80486,-0.42909 -5.7995,-1.42382 -5.97908,-1.98607 -0.0755,-0.23655 0.61619,-0.95092 1.53719,-1.5875 2.32233,-1.60515 5.78532,-4.47938 5.78532,-4.80174 0,-0.14696 -1.34439,-0.70502 -2.98754,-1.24013 -6.13637,-1.9984 -14.3419,-6.61575 -20.30786,-11.42748 -3.9867,-3.21541 -9.48159,-9.10142 -11.80453,-12.64477 -1.13437,-1.73034 -2.1668,-3.26961 -2.29427,-3.4206 -0.12748,-0.15098 -1.07951,1.11902 -2.11561,2.82223 -1.31737,2.16555 -3.0594,4.27149 -5.79327,7.00349 -5.66618,5.66231 -10.66905,8.54072 -18.52367,10.65761 -3.017418,0.81323 -4.054261,0.91279 -9.727416,0.93405 -7.617178,0.0285 -8.141524,-0.13246 -7.786594,-2.39111 0.402309,-2.56015 2.500762,-8.18585 4.088582,-10.96101 4.458139,-7.79182 11.619442,-14.05328 19.661208,-17.1907 1.60073,-0.62452 2.91041,-1.24811 2.91041,-1.38576 0,-0.13766 -0.43398,-0.35921 -0.9644,-0.49234 -0.53043,-0.13313 -2.13912,-0.7848 -3.57487,-1.44816 -10.286289,-4.75256 -18.507652,-14.45312 -21.37118,-25.21633 -0.80363,-3.02061 -0.662948,-3.90302 0.686845,-4.30817 1.896912,-0.56938 10.672245,-0.44063 13.959792,0.2048 10.549173,2.07108 20.131983,8.27936 25.693883,16.64592 1.03188,1.55222 1.93641,2.82222 2.01005,2.82222 0.0736,0 0.76867,-1.08627 1.54452,-2.41393 6.49059,-11.10706 20.26067,-22.46223 33.40695,-27.54824 3.62273,-1.40155 3.57502,-1.24824 1.85538,-5.9624 -1.22705,-3.36381 -2.82708,-6.27286 -5.48133,-9.96574 -1.10411,-1.53616 -2.024,-3.03114 -2.04419,-3.32218 -0.0838,-1.2068 6.38727,-0.67974 11.59659,0.94452 3.60168,1.123 8.08982,3.48675 10.96607,5.77545 2.57413,2.0483 5.42178,5.6642 6.58656,8.36352 0.70724,1.639 0.96404,1.89727 2.21127,2.22406 11.67614,3.05929 25.89449,11.83412 34.77016,21.45834 6.33113,6.86508 10.06519,13.40476 10.74062,18.81064 0.74193,5.93824 -3.69221,14.91988 -11.23379,22.7548 -9.82832,10.21061 -21.5584,17.23847 -33.68437,20.18138 -4.04933,0.98275 -4.15492,1.03389 -6.12227,2.96541 -3.33241,3.27172 -7.56845,4.98236 -13.16757,5.31745 -1.55222,0.0929 -3.82364,0.0157 -5.04759,-0.17153 z m 46.24659,-41.9219 c 2.62846,-1.0208 5.79203,-3.92929 7.20811,-6.62691 1.50264,-2.86252 1.9918,-5.28872 1.77308,-8.79448 -0.1506,-2.41398 -0.41133,-3.42931 -1.43312,-5.58091 -2.44566,-5.14986 -6.52714,-7.89681 -12.21514,-8.22113 -6.13039,-0.34953 -10.81128,1.74243 -14.26821,6.37671 -2.96356,3.97289 -3.53655,10.50936 -1.33386,15.21639 1.82685,3.90392 5.8584,7.30042 9.84856,8.29724 2.36307,0.59034 8.13436,0.22099 10.42058,-0.66691 z m -7.53365,-2.95957 c -5.56013,-1.56607 -8.71378,-6.0288 -8.3666,-11.83957 0.1755,-2.93742 0.91896,-4.78783 2.77129,-6.89751 1.98036,-2.25551 6.97121,-4.17624 9.31989,-3.58676 0.80965,0.20321 0.88646,0.3873 0.88646,2.12468 0,1.69101 0.1205,2.00359 1.0854,2.8155 1.35771,1.14244 2.67632,1.16012 4.17294,0.0559 0.63915,-0.47155 1.39173,-0.76924 1.6724,-0.66154 0.28068,0.10771 0.93729,1.00946 1.45915,2.00389 1.30998,2.49628 1.36046,6.87699 0.11135,9.66446 -2.12594,4.74422 -8.24219,7.69261 -13.11228,6.3209 z m -0.88221,-14.90805 c 0.6737,-0.67371 0.68584,-0.89485 0.0936,-1.70477 -0.65772,-0.89949 -2.15166,-0.62253 -2.30037,0.42647 -0.22119,1.56035 1.13759,2.34745 2.20675,1.2783 z"
         id="path6083"
         inkscape:connector-curvature="0" />
      <path
         style="fill:#f9dbe2;stroke-width:0.35277775"
         d="m 161.45356,300.20846 c -4.03997,-0.86553 -4.91661,-1.72097 -2.85576,-2.78668 1.29337,-0.66883 6.38353,-4.69834 6.38353,-5.05338 0,-0.14577 -1.35853,-0.72629 -3.01896,-1.29005 -13.15881,-4.46776 -26.24859,-14.48941 -33.14507,-25.37615 -1.4731,-2.32542 -1.80683,-2.66753 -2.10768,-2.16063 -7.70807,12.98723 -17.99944,19.86402 -32.017954,21.3947 -4.180361,0.45646 -10.227768,0.0116 -11.052358,-0.81295 -0.423728,-0.42373 -0.369416,-0.9604 0.380943,-3.76425 3.117839,-11.65036 11.696411,-21.10657 23.446389,-25.84511 2.55971,-1.03228 3.1775,-1.40442 2.64583,-1.59376 -13.263302,-4.72343 -22.545665,-14.47026 -25.971874,-27.27146 -1.062205,-3.96868 -1.071303,-3.96142 5.229599,-4.17369 11.458805,-0.38603 21.378575,3.24395 29.520375,10.80251 2.07297,1.92447 5.41162,6.04814 6.39529,7.89902 0.38368,0.72192 0.85993,1.3107 1.05834,1.3084 0.19841,-0.002 0.87975,-0.9491 1.51408,-2.10399 6.05412,-11.02235 21.34109,-23.57284 34.43056,-28.26723 2.72873,-0.97863 2.72694,-0.9726 1.43537,-4.84017 -1.15354,-3.45427 -3.17133,-7.21705 -5.8587,-10.92535 -2.68839,-3.7097 -2.60496,-4.07852 0.85125,-3.76317 12.12016,1.10585 21.94851,7.02691 25.93081,15.62193 0.47845,1.03265 1.05147,1.92956 1.27337,1.99312 9.59827,2.7494 17.51655,6.71461 25.97984,13.00984 4.68086,3.48176 12.37477,11.28016 15.12113,15.32649 4.07178,5.99914 5.56889,10.23681 5.24629,14.84999 -1.0545,15.07959 -24.94884,36.03719 -46.1001,40.43415 -2.4265,0.50443 -2.78867,0.7023 -4.77294,2.6077 -2.5211,2.42088 -4.88784,3.7042 -8.56658,4.64507 -3.15871,0.80785 -7.96824,0.86498 -11.37502,0.1351 z m 45.16978,-40.37755 c 9.9472,-1.88645 15.10421,-12.84996 10.55037,-22.42947 -2.80234,-5.89503 -9.06366,-8.98826 -16.0813,-7.94451 -3.64827,0.54261 -6.05203,1.69843 -8.61359,4.14174 -3.7183,3.54666 -5.44459,8.52739 -4.63949,13.38599 1.49403,9.01617 9.63226,14.58184 18.78401,12.84625 z m -5.88567,-4.59108 c -2.49616,-0.98933 -4.82916,-3.14629 -6.015,-5.56113 -1.30179,-2.65096 -1.39957,-6.74487 -0.22236,-9.30984 1.8377,-4.00408 6.00963,-6.77304 9.89939,-6.57035 l 2.03302,0.10593 v 1.88263 c 0,1.62536 0.13526,1.99897 0.98981,2.73403 1.27163,1.0938 3.30657,1.1432 4.61743,0.11208 0.51694,-0.40663 1.18124,-0.64671 1.47621,-0.53352 0.29498,0.1132 0.95177,1.11326 1.45954,2.22237 2.46512,5.38452 0.0451,11.95227 -5.37004,14.57368 -2.42085,1.17191 -6.39073,1.32597 -8.868,0.34412 z m 0.50922,-14.174 c 0.74423,-0.74423 0.49826,-2.0271 -0.47357,-2.46989 -0.76811,-0.34998 -1.00517,-0.30038 -1.65094,0.34538 -0.64576,0.64577 -0.69536,0.88283 -0.34539,1.65094 0.4428,0.97183 1.72566,1.2178 2.4699,0.47357 z"
         id="path6081"
         inkscape:connector-curvature="0" />
      <path
         style="fill:#f6ccd4;stroke-width:0.35277775"
         d="m 162.86467,300.38034 c -2.52764,-0.44445 -5.29167,-1.36188 -5.29167,-1.75639 0,-0.1712 0.99035,-0.98381 2.20077,-1.80579 2.35942,-1.60225 5.20756,-4.08812 5.20756,-4.54517 0,-0.1535 -1.07156,-0.63119 -2.38125,-1.06154 -6.23674,-2.04933 -13.52303,-5.94375 -19.24869,-10.28814 -5.91841,-4.49065 -12.42036,-11.51739 -15.01794,-16.23007 -0.50762,-0.92096 -1.0817,-1.66989 -1.27572,-1.6643 -0.19403,0.006 -1.14589,1.37363 -2.11524,3.04008 -5.30696,9.12337 -15.57977,16.16429 -26.647018,18.26372 -2.986698,0.56656 -10.625692,0.71591 -13.218299,0.25842 -1.780105,-0.31411 -1.890123,-0.87992 -0.884107,-4.54688 3.14243,-11.45426 12.225372,-21.21707 23.902854,-25.69202 1.4067,-0.53907 2.55764,-1.08866 2.55764,-1.22133 0,-0.13266 -0.63091,-0.43022 -1.40202,-0.66126 -2.3519,-0.70464 -8.16545,-3.80242 -10.610445,-5.65382 -6.697261,-5.07131 -11.996025,-12.66141 -14.073988,-20.15999 -1.080647,-3.89965 -1.008931,-4.47721 0.59826,-4.81807 2.39985,-0.50897 10.648028,-0.30119 13.691571,0.34491 8.712692,1.84957 15.319592,5.48793 21.354762,11.75988 1.47344,1.53125 3.44142,3.93502 4.37329,5.34172 0.93187,1.4067 1.74339,2.55764 1.80338,2.55764 0.06,0 0.7405,-1.08117 1.51226,-2.4026 6.67869,-11.43551 20.59329,-22.87931 34.20854,-28.1342 l 2.5959,-1.0019 -0.21052,-1.53588 c -0.45536,-3.32221 -3.27835,-9.06992 -6.87224,-13.99215 -0.97999,-1.34219 -1.68651,-2.59452 -1.57006,-2.78294 0.32656,-0.52837 5.90502,-0.0468 9.28925,0.80185 1.64517,0.41257 4.80115,1.6299 7.01329,2.70517 3.59058,1.74531 4.37053,2.30178 7.27014,5.18704 2.55095,2.53833 3.53263,3.81336 4.57393,5.94071 1.31843,2.69353 1.336,2.71107 3.1368,3.12916 3.25344,0.75535 8.1618,2.75546 12.85402,5.2379 13.72019,7.25872 25.10122,17.95458 29.88151,28.08256 2.38229,5.04735 2.79378,7.83446 1.75088,11.85916 -1.89974,7.33134 -8.59889,16.41592 -17.23485,23.37184 -4.64571,3.74194 -10.82241,7.79977 -14.67329,9.63974 -3.84666,1.83795 -10.32115,4.06114 -14.00982,4.81066 -2.34039,0.47556 -2.68346,0.66556 -4.42789,2.45231 -1.997,2.04546 -4.81259,3.67197 -8.02822,4.63776 -2.3752,0.71338 -7.95676,0.99406 -10.58333,0.53221 z m 44.52083,-40.58508 c 7.2387,-1.51449 12.00583,-8.29675 11.47506,-16.32573 -0.32081,-4.85286 -2.38324,-8.77823 -6.08627,-11.58379 -2.70144,-2.04672 -4.60779,-2.5689 -9.34018,-2.55844 -3.3571,0.007 -4.39165,0.14391 -5.99722,0.79123 -3.90427,1.5741 -7.32382,4.99303 -8.90285,8.90119 -0.64264,1.59056 -0.78526,2.6397 -0.79124,5.82083 -0.007,3.6378 0.063,4.02894 1.11629,6.2524 1.91101,4.03405 5.22003,6.99441 9.45513,8.45887 2.05428,0.71035 6.29557,0.82417 9.07128,0.24344 z m -6.30828,-4.47542 c -2.7496,-0.98235 -4.82173,-2.87038 -6.18041,-5.63133 -1.01451,-2.06157 -1.16138,-2.70634 -1.14301,-5.01786 0.017,-2.13369 0.20877,-3.04285 0.98097,-4.64952 1.74769,-3.63637 5.11713,-5.92815 9.14031,-6.21695 2.59797,-0.18649 2.49879,-0.27342 2.39084,2.09565 -0.0443,0.97128 0.18929,1.56746 0.94563,2.41394 1.27852,1.43091 3.10049,1.58356 4.70877,0.3945 1.36334,-1.00796 1.86609,-0.81571 2.84518,1.08801 1.07581,2.09177 1.31705,6.24838 0.50461,8.69442 -0.76114,2.29156 -3.27092,5.1038 -5.62443,6.30223 -2.41067,1.22753 -5.99112,1.44771 -8.56846,0.52691 z m 0.16967,-14.25401 c 1.14034,-1.14035 -0.13891,-3.06863 -1.70584,-2.57131 -0.8599,0.27292 -1.27579,1.76333 -0.68925,2.47006 0.52427,0.63171 1.81027,0.68607 2.39509,0.10125 z"
         id="path6079"
         inkscape:connector-curvature="0" />
      <path
         style="fill:#d3d4ca;stroke-width:0.35277775"
         d="m 162.3355,300.16354 c -2.55724,-0.57146 -4.40963,-1.25309 -4.40909,-1.62243 3.5e-4,-0.23711 0.7534,-0.90673 1.67345,-1.48803 2.37487,-1.50047 5.79449,-4.40682 5.65996,-4.81042 -0.0625,-0.18746 -1.53978,-0.81903 -3.28286,-1.40349 -9.91753,-3.32538 -21.45244,-11.05963 -28.23133,-18.92932 -1.29225,-1.5002 -3.31577,-4.19607 -4.4967,-5.99083 -1.18093,-1.79475 -2.24672,-3.26319 -2.36842,-3.26319 -0.1217,0 -0.50467,0.59428 -0.85104,1.32063 -2.15872,4.52688 -7.81166,10.86161 -12.43781,13.93789 -8.15556,5.42327 -18.549137,7.93185 -27.552734,6.65012 -2.573129,-0.36631 -2.701548,-0.57282 -2.021786,-3.25125 3.218604,-12.68208 12.865659,-23.09884 25.21193,-27.22348 0.86577,-0.28923 1.62425,-0.67624 1.6855,-0.86001 0.0613,-0.18377 -0.54359,-0.53036 -1.34411,-0.7702 -2.79559,-0.83758 -9.0347,-4.29705 -11.935639,-6.61808 -3.375931,-2.70108 -6.897913,-6.67705 -8.91429,-10.06334 -3.02554,-5.08109 -5.539771,-12.46591 -4.573062,-13.43204 0.31773,-0.31754 2.277381,-0.43022 7.209407,-0.41454 7.477787,0.0238 9.316914,0.35333 15.237104,2.73041 7.64851,3.07104 15.00082,9.51141 19.42179,17.01282 0.31693,0.53775 0.5872,0.25698 1.91024,-1.98447 2.50785,-4.24871 5.21555,-7.65058 9.5313,-11.97483 6.80601,-6.81942 15.09543,-12.43253 22.93791,-15.5322 2.03729,-0.80522 3.90274,-1.65068 4.14545,-1.87878 0.35271,-0.3315 0.33591,-0.81925 -0.0837,-2.43025 -1.0557,-4.05311 -2.84006,-7.59123 -6.3927,-12.67582 -1.04631,-1.49748 -1.90238,-2.88654 -1.90238,-3.0868 0,-0.49858 1.67847,-0.45366 5.64444,0.15105 5.53946,0.84462 9.53477,2.36791 13.99573,5.33614 3.6087,2.40114 6.35631,5.40653 8.22291,8.99438 1.34311,2.58161 1.54505,2.79959 2.92932,3.16186 5.87685,1.53802 14.76784,5.73102 20.83854,9.82749 9.44901,6.37613 18.14769,15.42287 21.73277,22.6024 2.99405,5.99591 3.36023,9.65597 1.47746,14.7677 -3.77613,10.25219 -12.34865,19.39002 -26.80534,28.57299 -4.01274,2.54891 -12.47083,5.8737 -17.74507,6.97541 -2.77734,0.58015 -3.07544,0.7344 -5.07982,2.62846 -3.96794,3.74958 -8.263,5.29931 -14.50214,5.23264 -2.1063,-0.0225 -4.14713,-0.11188 -4.53519,-0.19859 z m 44.28784,-39.97985 c 7.5125,-1.42472 12.36201,-7.40506 12.44188,-15.34314 0.10404,-10.34061 -7.89694,-17.27673 -18.14063,-15.72626 -5.18091,0.78418 -9.69416,4.02611 -11.93131,8.5704 -5.8552,11.8936 4.41843,25.00453 17.63006,22.499 z m -5.54612,-4.86385 c -2.7496,-0.98235 -4.82173,-2.87038 -6.18041,-5.63133 -1.01451,-2.06157 -1.16138,-2.70634 -1.14301,-5.01786 0.017,-2.13369 0.20877,-3.04285 0.98097,-4.64952 1.74769,-3.63637 5.11713,-5.92815 9.14031,-6.21695 2.59797,-0.18649 2.49879,-0.27342 2.39084,2.09565 -0.0443,0.97128 0.18929,1.56746 0.94563,2.41394 1.27852,1.43091 3.10049,1.58356 4.70877,0.3945 1.36334,-1.00796 1.86609,-0.81571 2.84518,1.08801 1.07581,2.09177 1.31705,6.24838 0.50461,8.69442 -0.76114,2.29156 -3.27092,5.1038 -5.62443,6.30223 -2.41067,1.22753 -5.99112,1.44771 -8.56846,0.52691 z m 0.16967,-14.25401 c 1.14034,-1.14035 -0.13891,-3.06863 -1.70584,-2.57131 -0.8599,0.27292 -1.27579,1.76333 -0.68925,2.47006 0.52427,0.63171 1.81027,0.68607 2.39509,0.10125 z"
         id="path6077"
         inkscape:connector-curvature="0" />
      <path
         style="fill:#f4b8c4;stroke-width:0.35277775"
         d="m 162.3355,300.16354 c -2.55724,-0.57146 -4.40963,-1.25309 -4.40909,-1.62243 3.5e-4,-0.23711 0.7534,-0.90673 1.67345,-1.48803 2.37487,-1.50047 5.79449,-4.40682 5.65996,-4.81042 -0.0625,-0.18746 -1.53978,-0.81903 -3.28286,-1.40349 -9.91753,-3.32538 -21.45244,-11.05963 -28.23133,-18.92932 -1.29225,-1.5002 -3.31577,-4.19607 -4.4967,-5.99083 -1.18093,-1.79475 -2.24672,-3.26319 -2.36842,-3.26319 -0.1217,0 -0.50467,0.59428 -0.85104,1.32063 -2.15872,4.52688 -7.81166,10.86161 -12.43781,13.93789 -8.15556,5.42327 -18.549137,7.93185 -27.552734,6.65012 -2.573129,-0.36631 -2.701548,-0.57282 -2.021786,-3.25125 3.218604,-12.68208 12.865659,-23.09884 25.21193,-27.22348 0.86577,-0.28923 1.62425,-0.67624 1.6855,-0.86001 0.0613,-0.18377 -0.54359,-0.53036 -1.34411,-0.7702 -2.79559,-0.83758 -9.0347,-4.29705 -11.935639,-6.61808 -3.375931,-2.70108 -6.897913,-6.67705 -8.91429,-10.06334 -3.02554,-5.08109 -5.539771,-12.46591 -4.573062,-13.43204 0.31773,-0.31754 2.277381,-0.43022 7.209407,-0.41454 7.477787,0.0238 9.316914,0.35333 15.237104,2.73041 7.64851,3.07104 15.00082,9.51141 19.42179,17.01282 0.31693,0.53775 0.5872,0.25698 1.91024,-1.98447 2.50785,-4.24871 5.21555,-7.65058 9.5313,-11.97483 6.80601,-6.81942 15.09543,-12.43253 22.93791,-15.5322 2.03729,-0.80522 3.90274,-1.65068 4.14545,-1.87878 0.35271,-0.3315 0.33591,-0.81925 -0.0837,-2.43025 -1.0557,-4.05311 -2.84006,-7.59123 -6.3927,-12.67582 -1.04631,-1.49748 -1.90238,-2.88654 -1.90238,-3.0868 0,-0.49858 1.67847,-0.45366 5.64444,0.15105 5.53946,0.84462 9.53477,2.36791 13.99573,5.33614 3.6087,2.40114 6.35631,5.40653 8.22291,8.99438 1.34311,2.58161 1.54505,2.79959 2.92932,3.16186 5.87685,1.53802 14.76784,5.73102 20.83854,9.82749 9.44901,6.37613 18.14769,15.42287 21.73277,22.6024 2.99405,5.99591 3.36023,9.65597 1.47746,14.7677 -3.77613,10.25219 -12.34865,19.39002 -26.80534,28.57299 -4.01274,2.54891 -12.47083,5.8737 -17.74507,6.97541 -2.77734,0.58015 -3.07544,0.7344 -5.07982,2.62846 -3.96794,3.74958 -8.263,5.29931 -14.50214,5.23264 -2.1063,-0.0225 -4.14713,-0.11188 -4.53519,-0.19859 z m 44.28784,-39.97985 c 7.5125,-1.42472 12.36201,-7.40506 12.44188,-15.34314 0.10404,-10.34061 -7.89694,-17.27673 -18.14063,-15.72626 -5.18091,0.78418 -9.69416,4.02611 -11.93131,8.5704 -5.8552,11.8936 4.41843,25.00453 17.63006,22.499 z m -5.22765,-5.08078 c -2.73763,-0.89318 -4.74265,-2.68944 -6.33596,-5.67625 -1.30454,-2.44547 -1.34362,-6.56185 -0.0869,-9.15734 1.72233,-3.55721 4.92752,-5.8032 8.71553,-6.10727 l 2.21523,-0.17782 v 1.47693 c 0,2.45569 0.99917,3.76363 3.37869,4.42278 0.43749,0.12119 1.39212,-0.14754 2.3687,-0.66679 l 1.63585,-0.86979 0.71691,0.9114 c 1.51366,1.92432 1.92769,6.17888 0.90185,9.26741 -0.74361,2.23878 -2.97729,4.7517 -5.25431,5.91116 -2.1968,1.11862 -5.94161,1.42053 -8.25555,0.66558 z m 0.20398,-13.6843 c 0.75321,-0.75321 0.50187,-2.33116 -0.47307,-2.96997 -1.81465,-1.189 -3.8877,1.10462 -2.44212,2.70196 0.69855,0.7719 2.26709,0.9161 2.91519,0.26801 z"
         id="path6075"
         inkscape:connector-curvature="0" />
      <path
         style="fill:#f1a8b8;stroke-width:0.35277775"
         d="m 163.04106,300.15696 c -1.68246,-0.22314 -4.70763,-1.14361 -4.92744,-1.49927 -0.11046,-0.17873 0.69576,-0.92009 1.7916,-1.64747 2.83614,-1.88253 5.686,-4.58985 5.2525,-4.98982 -0.19402,-0.17902 -1.62277,-0.75987 -3.175,-1.29077 -14.12476,-4.83105 -26.75365,-15.02618 -34.61863,-27.94716 -0.3671,-0.60309 -0.45217,-0.55919 -1.05833,0.54608 -3.06167,5.58266 -8.12791,11.34353 -12.65359,14.38854 -4.74054,3.18956 -10.53821,5.53035 -16.051387,6.48067 -2.967281,0.51148 -9.533255,0.62453 -12.082638,0.20804 -1.548922,-0.25305 -1.675694,-0.35082 -1.675694,-1.29227 0,-1.58423 1.692705,-6.56666 3.354666,-9.87437 4.344172,-8.64595 12.530164,-15.77067 21.671713,-18.86208 1.24971,-0.42262 2.32935,-0.93985 2.3992,-1.1494 0.0699,-0.20955 -0.71452,-0.65301 -1.74304,-0.98547 -5.03341,-1.62702 -10.350026,-4.93179 -14.655768,-9.10994 -4.898475,-4.75332 -8.719713,-11.1979 -10.282563,-17.34172 -1.016198,-3.99484 -1.198738,-3.88819 6.588674,-3.84955 5.529731,0.0274 6.637836,0.13496 9.626477,0.93405 7.96148,2.12872 12.89033,4.98407 18.67144,10.81665 2.53964,2.56225 4.51892,4.91407 5.29166,6.28767 1.29732,2.30607 1.91439,2.70211 2.3029,1.47802 0.4431,-1.39607 5.05659,-7.91106 7.63613,-10.78344 5.68774,-6.3334 13.65003,-12.5426 20.75439,-16.18479 1.06605,-0.54654 3.60516,-1.66785 5.64245,-2.49179 2.3044,-0.93198 3.74851,-1.71484 3.82152,-2.07165 0.4003,-1.95638 -3.13478,-9.761 -6.65845,-14.70028 -1.45565,-2.04044 -1.95695,-3.00188 -1.65368,-3.1716 1.31525,-0.73605 10.22388,1.11918 14.53997,3.02796 5.341,2.36204 10.77923,7.34223 12.92501,11.83639 1.17732,2.4658 1.21305,2.50036 3.13118,3.02912 6.44076,1.7755 13.63518,5.17746 20.16933,9.53732 14.42166,9.62271 24.63345,22.74022 24.63345,31.64277 0,6.00455 -4.13569,13.75175 -11.32658,21.21759 -9.59407,9.9609 -21.44783,16.96964 -33.58028,19.85492 -3.85712,0.91728 -3.94025,0.95858 -5.92643,2.94476 -4.10515,4.10515 -10.87228,5.97553 -18.13476,5.01229 z m 44.85562,-40.1099 c 5.38779,-1.43455 9.76281,-6.00913 11.03829,-11.54178 0.86578,-3.75546 0.19546,-8.65582 -1.64712,-12.04123 -1.36359,-2.50537 -4.89836,-5.67403 -7.3919,-6.6263 -2.8793,-1.0996 -8.05874,-1.35231 -10.88383,-0.53103 -3.03597,0.88258 -4.64826,1.80466 -6.88355,3.93676 -3.59735,3.4313 -5.12802,7.41132 -4.83393,12.56915 0.15293,2.68217 0.36129,3.49786 1.46278,5.72657 2.88786,5.84319 7.86927,8.96754 14.32391,8.98396 1.64924,0.004 3.81615,-0.21005 4.81535,-0.4761 z m -6.50099,-4.94415 c -2.73763,-0.89318 -4.74265,-2.68944 -6.33596,-5.67625 -1.30454,-2.44547 -1.34362,-6.56185 -0.0869,-9.15734 1.72233,-3.55721 4.92752,-5.8032 8.71553,-6.10727 l 2.21523,-0.17782 v 1.47693 c 0,2.45569 0.99917,3.76363 3.37869,4.42278 0.43749,0.12119 1.39212,-0.14754 2.3687,-0.66679 l 1.63585,-0.86979 0.71691,0.9114 c 1.51366,1.92432 1.92769,6.17888 0.90185,9.26741 -0.74361,2.23878 -2.97729,4.7517 -5.25431,5.91116 -2.1968,1.11862 -5.94161,1.42053 -8.25555,0.66558 z m 0.20398,-13.6843 c 0.75321,-0.75321 0.50187,-2.33116 -0.47307,-2.96997 -1.81465,-1.189 -3.8877,1.10462 -2.44212,2.70196 0.69855,0.7719 2.26709,0.9161 2.91519,0.26801 z"
         id="path6073"
         inkscape:connector-curvature="0" />
      <path
         style="fill:#ef92a7;stroke-width:0.35277775"
         d="m 164.09939,300.18863 c -2.14279,-0.31403 -5.82083,-1.28034 -5.82083,-1.52927 0,-0.14111 1.38906,-1.29556 3.0868,-2.56543 3.57457,-2.67368 4.58504,-3.68803 4.11917,-4.13495 -0.17974,-0.17243 -1.59681,-0.73233 -3.14903,-1.24424 -4.00611,-1.32116 -10.95637,-4.74205 -14.9417,-7.35425 -8.0095,-5.24987 -15.05677,-12.38415 -19.18086,-19.4177 -0.5288,-0.90186 -1.08443,-1.63805 -1.23472,-1.63599 -0.1503,0.002 -0.9288,1.15299 -1.73001,2.55764 -5.34827,9.37633 -14.10172,15.90547 -25.05807,18.69063 -2.651237,0.67396 -4.05419,0.79303 -9.36286,0.79467 -4.351682,10e-4 -6.371241,-0.12504 -6.663026,-0.41694 -0.323073,-0.3232 -0.281787,-0.96771 0.180787,-2.82222 3.041489,-12.19366 12.755675,-22.63286 24.876559,-26.73323 1.24972,-0.42277 2.32663,-0.93192 2.39314,-1.13146 0.0665,-0.19953 -1.30443,-0.87265 -3.04654,-1.49582 -11.013527,-3.93963 -19.903461,-13.28327 -23.45763,-24.65481 -1.273734,-4.0753 -1.233404,-4.55947 0.407575,-4.89302 2.467927,-0.50164 10.327647,-0.27287 13.493749,0.39275 10.627156,2.23421 19.603216,8.2852 25.335526,17.07934 2.21917,3.40452 1.97667,3.4358 4.21797,-0.54413 6.0776,-10.79218 21.057,-23.00423 33.68192,-27.45939 2.63843,-0.93107 2.73402,-1.00421 2.73402,-2.09199 0,-2.74997 -2.93882,-9.24885 -6.30329,-13.93903 -1.04146,-1.45183 -1.97126,-2.84216 -2.06621,-3.08961 -0.42761,-1.11433 7.25363,-0.0489 11.91674,1.65293 7.41575,2.70641 12.59287,7.06001 15.65606,13.16565 l 1.08142,2.15554 3.175,0.91075 c 1.74625,0.50092 4.10996,1.29107 5.2527,1.75589 3.04862,1.24006 10.08906,5.04996 13.57849,7.34793 10.61354,6.98956 20.239,17.52895 23.33066,25.54589 2.0827,5.40063 1.76784,8.86875 -1.38706,15.27801 -3.99322,8.11232 -9.94414,14.32809 -21.90118,22.87586 -3.02049,2.15927 -10.65868,5.9597 -14.64027,7.28436 -1.74625,0.58097 -4.57681,1.36186 -6.29014,1.7353 -2.997,0.65324 -3.20026,0.76075 -5.36034,2.83496 -2.30641,2.21473 -4.78444,3.59075 -8.04817,4.46905 -1.93314,0.52023 -7.1085,0.88541 -8.87635,0.62633 z m 42.54824,-39.65677 c 10.39455,-1.97129 15.80052,-13.12103 11.23922,-23.18076 -1.26779,-2.79606 -4.50989,-6.13222 -7.11655,-7.32303 -4.41345,-2.01621 -10.14114,-1.94957 -14.67454,0.17076 -5.81088,2.71781 -9.78907,9.70651 -9.08392,15.95821 1.10346,9.78305 9.89829,16.2215 19.63579,14.37482 z m -5.25194,-5.42895 c -2.73763,-0.89318 -4.74265,-2.68944 -6.33596,-5.67625 -1.30454,-2.44547 -1.34362,-6.56185 -0.0869,-9.15734 1.72233,-3.55721 4.92752,-5.8032 8.71553,-6.10727 l 2.21523,-0.17782 v 1.47693 c 0,2.45569 0.99917,3.76363 3.37869,4.42278 0.43749,0.12119 1.39212,-0.14754 2.3687,-0.66679 l 1.63585,-0.86979 0.71691,0.9114 c 1.51366,1.92432 1.92769,6.17888 0.90185,9.26741 -0.74361,2.23878 -2.97729,4.7517 -5.25431,5.91116 -2.1968,1.11862 -5.94161,1.42053 -8.25555,0.66558 z m 0.20398,-13.6843 c 0.75321,-0.75321 0.50187,-2.33116 -0.47307,-2.96997 -1.81465,-1.189 -3.8877,1.10462 -2.44212,2.70196 0.69855,0.7719 2.26709,0.9161 2.91519,0.26801 z"
         id="path6071"
         inkscape:connector-curvature="0" />
      <path
         style="fill:#ed849b;stroke-width:0.35277775"
         d="m 161.12817,299.50281 c -1.24611,-0.27025 -2.40262,-0.62833 -2.57002,-0.79573 -0.17063,-0.17063 0.58232,-0.89309 1.71366,-1.64425 2.43645,-1.61772 5.41508,-4.34821 5.41508,-4.96397 0,-0.24741 -1.13267,-0.79057 -2.54002,-1.21804 -5.79193,-1.75924 -13.17091,-5.60583 -18.99497,-9.90187 -5.85689,-4.32026 -12.51036,-11.42884 -15.51926,-16.58078 -0.79159,-1.3554 -1.57369,-2.38127 -1.738,-2.27973 -0.16431,0.10155 -0.8096,1.09744 -1.43397,2.21309 -7.37254,13.17347 -21.68699,20.96216 -36.854676,20.05314 -2.294785,-0.13753 -4.04759,-0.40792 -4.290979,-0.66192 -0.314203,-0.32791 -0.25779,-1.02567 0.238651,-2.9518 3.116332,-12.09098 12.733671,-22.25105 24.969394,-26.37848 1.27794,-0.43108 2.37795,-0.94704 2.44446,-1.14658 0.0665,-0.19953 -1.27865,-0.86343 -2.98925,-1.47532 -5.81552,-2.08026 -10.497564,-5.17564 -15.073809,-9.96554 -4.427361,-4.63407 -7.086193,-9.28366 -8.875152,-15.52028 -0.699787,-2.43959 -0.819541,-3.29562 -0.505008,-3.60994 0.285856,-0.28567 2.381303,-0.40543 6.832587,-0.39049 5.822934,0.0195 6.748511,0.10992 9.948062,0.97152 4.241,1.14204 10.43579,4.11101 13.58194,6.50941 3.26558,2.48943 7.69499,7.23712 9.53635,10.22159 0.86688,1.40504 1.7349,2.55088 1.92893,2.54631 0.19403,-0.005 1.01188,-1.16338 1.81745,-2.57514 6.64734,-11.64942 20.56965,-23.13201 34.28092,-28.27356 1.42146,-0.53303 2.66122,-1.16912 2.75501,-1.41353 0.28707,-0.74811 -0.91455,-4.78651 -2.31008,-7.7637 -0.72759,-1.55222 -2.38155,-4.37992 -3.67546,-6.28377 -1.29391,-1.90385 -2.35256,-3.62002 -2.35256,-3.81372 0,-0.52366 4.54128,-0.01 8.46666,0.95846 2.02717,0.49992 4.815,1.55791 7.05556,2.67759 3.15769,1.57802 4.17885,2.32131 6.92174,5.03822 2.56589,2.5416 3.47676,3.73022 4.49726,5.8686 l 1.27969,2.68149 2.3819,0.62861 c 7.64697,2.0181 17.8683,7.50169 26.03042,13.96494 4.03001,3.1912 9.85431,9.20973 12.45874,12.87423 4.65429,6.54868 6.38503,11.5208 5.64092,16.20535 -1.16072,7.30732 -8.14421,17.21924 -17.36589,24.64805 -9.46836,7.62752 -17.86087,11.92767 -27.63207,14.15808 -3.50681,0.80048 -3.6523,0.87329 -5.47423,2.73942 -2.0806,2.13109 -5.88967,4.16242 -9.02043,4.81051 -2.5297,0.52367 -8.20769,0.44068 -10.97955,-0.16047 z M 208.373,260.30082 c 5.07063,-1.31688 8.95718,-5.26434 10.64093,-10.8077 0.60563,-1.9939 0.70877,-3.05544 0.5723,-5.88967 -0.14686,-3.04978 -0.31613,-3.77248 -1.43578,-6.13016 -1.70413,-3.58841 -3.92721,-5.9 -7.25718,-7.54613 l -2.65888,-1.31438 h -4.605 c -4.57585,0 -4.62217,0.008 -7.31638,1.29476 -6.11969,2.92236 -9.45946,8.13032 -9.45946,14.75089 0,4.90644 1.68606,8.7698 5.30441,12.15435 4.18459,3.91418 9.86726,5.13659 16.21504,3.48804 z m -6.97731,-5.19791 c -2.73763,-0.89318 -4.74265,-2.68944 -6.33596,-5.67625 -1.30454,-2.44547 -1.34362,-6.56185 -0.0869,-9.15734 1.72233,-3.55721 4.92752,-5.8032 8.71553,-6.10727 l 2.21523,-0.17782 v 1.47693 c 0,2.45569 0.99917,3.76363 3.37869,4.42278 0.43749,0.12119 1.39212,-0.14754 2.3687,-0.66679 l 1.63585,-0.86979 0.71691,0.9114 c 1.51366,1.92432 1.92769,6.17888 0.90185,9.26741 -0.74361,2.23878 -2.97729,4.7517 -5.25431,5.91116 -2.1968,1.11862 -5.94161,1.42053 -8.25555,0.66558 z m 0.20398,-13.6843 c 0.75321,-0.75321 0.50187,-2.33116 -0.47307,-2.96997 -1.81465,-1.189 -3.8877,1.10462 -2.44212,2.70196 0.69855,0.7719 2.26709,0.9161 2.91519,0.26801 z"
         id="path6069"
         inkscape:connector-curvature="0" />
      <path
         style="fill:#f07898;stroke-width:0.35277775"
         d="m 161.6589,299.49927 c -1.34227,-0.26658 -2.57737,-0.62158 -2.74467,-0.78888 -0.17038,-0.17039 1.03557,-1.29638 2.74179,-2.55999 3.33345,-2.46871 4.5904,-3.7956 4.0795,-4.3065 -0.1784,-0.1784 -1.73077,-0.79422 -3.4497,-1.36847 -13.64598,-4.55882 -27.29802,-15.33104 -34.07288,-26.88542 -0.5288,-0.90185 -1.10493,-1.63974 -1.28028,-1.63974 -0.17536,0 -1.05424,1.3103 -1.95306,2.91177 -5.28727,9.42054 -14.97288,16.40121 -25.924669,18.68461 -3.602527,0.75111 -10.177837,1.00499 -13.184008,0.50905 -1.486949,-0.2453 -1.675695,-0.37741 -1.675695,-1.17293 0,-1.24942 1.873393,-6.71184 3.213308,-9.36933 4.455512,-8.83673 13.287074,-16.32173 22.640354,-19.18833 2.64031,-0.8092 2.52521,-1.42674 -0.45366,-2.43406 -9.724943,-3.28852 -18.144374,-10.81671 -22.401089,-20.02982 -1.478479,-3.19997 -3.121567,-8.73497 -2.714001,-9.14253 0.164385,-0.16439 2.142761,-0.3977 4.396391,-0.51848 8.821469,-0.47275 17.104309,1.76034 24.599249,6.63209 3.15741,2.05232 8.66657,7.68167 10.74672,10.98116 0.94801,1.50371 1.93084,2.73403 2.18407,2.73403 0.25324,0 0.80231,-0.67469 1.22017,-1.49931 1.58437,-3.12664 5.17922,-7.91473 8.70401,-11.59313 7.70208,-8.03774 16.68679,-14.14538 25.91656,-17.61758 3.44334,-1.29537 3.4382,-1.28672 2.60511,-4.39137 -1.00159,-3.73257 -3.73953,-9.04539 -6.62874,-12.8627 -0.74593,-0.98554 -1.35623,-1.89154 -1.35623,-2.01334 0,-0.44372 6.24269,0.22376 8.77097,0.93781 3.89527,1.10012 6.61208,2.33323 9.81461,4.45469 3.59961,2.3845 6.35,5.39062 8.21916,8.98339 1.34262,2.58068 1.54556,2.79982 2.92932,3.16333 6.15775,1.61763 14.64182,5.65643 21.33258,10.15529 9.16504,6.16256 17.533,14.94369 21.25654,22.30608 1.98945,3.93366 2.58135,6.28627 2.38304,9.47186 -0.44981,7.22536 -6.78043,16.98317 -16.02371,24.69839 -9.93216,8.29022 -19.76488,13.4113 -29.57835,15.40501 -2.65328,0.53904 -2.94969,0.69517 -4.95156,2.60815 -4.79818,4.58514 -11.67762,6.27121 -19.36115,4.7452 z m 46.11674,-38.78078 c 6.00353,-1.56372 10.09911,-5.75894 11.69869,-11.98331 2.32074,-9.03062 -3.2727,-18.40407 -12.08883,-20.25837 -5.99133,-1.26016 -11.79737,0.39429 -15.9473,4.54422 -9.01891,9.01891 -4.9139,24.38899 7.4098,27.7439 2.21219,0.60223 6.52332,0.5798 8.92764,-0.0464 z m -6.37995,-5.61558 c -2.73763,-0.89318 -4.74265,-2.68944 -6.33596,-5.67625 -1.30454,-2.44547 -1.34362,-6.56185 -0.0869,-9.15734 1.72233,-3.55721 4.92752,-5.8032 8.71553,-6.10727 l 2.21523,-0.17782 v 1.47693 c 0,2.45569 0.99917,3.76363 3.37869,4.42278 0.43749,0.12119 1.39212,-0.14754 2.3687,-0.66679 l 1.63585,-0.86979 0.71691,0.9114 c 1.51366,1.92432 1.92769,6.17888 0.90185,9.26741 -0.74361,2.23878 -2.97729,4.7517 -5.25431,5.91116 -2.1968,1.11862 -5.94161,1.42053 -8.25555,0.66558 z m 0.20398,-13.6843 c 0.75321,-0.75321 0.50187,-2.33116 -0.47307,-2.96997 -1.81465,-1.189 -3.8877,1.10462 -2.44212,2.70196 0.69855,0.7719 2.26709,0.9161 2.91519,0.26801 z"
         id="path6067"
         inkscape:connector-curvature="0" />
      <path
         style="fill:#ee7694;stroke-width:0.35277775"
         d="m 163.74661,299.82614 c -0.38805,-0.0783 -1.62301,-0.32065 -2.74435,-0.53864 -1.12134,-0.21799 -2.11755,-0.52378 -2.21381,-0.67952 -0.0962,-0.15574 0.74184,-0.9078 1.86241,-1.67123 3.08623,-2.10262 5.60763,-4.56988 5.14398,-5.03353 -0.21103,-0.21103 -1.79009,-0.85354 -3.50902,-1.42779 -13.64598,-4.55882 -27.29802,-15.33104 -34.07288,-26.88542 -0.5288,-0.90185 -1.10977,-1.63974 -1.29103,-1.63974 -0.18127,0 -0.97374,1.17371 -1.76106,2.60823 -4.95362,9.02576 -13.69785,15.70177 -24.39285,18.62336 -2.62898,0.71817 -3.787502,0.81702 -9.575682,0.81702 -3.62167,0 -6.713528,-0.12852 -6.870796,-0.28561 -0.518078,-0.51748 1.264194,-6.35232 3.037716,-9.94494 2.086092,-4.2258 4.36952,-7.31522 7.841271,-10.60906 4.189721,-3.975 9.594861,-7.18707 14.848381,-8.82381 1.33259,-0.41517 2.00614,-0.80509 1.94028,-1.12322 -0.0555,-0.26802 -1.45026,-0.99439 -3.0995,-1.61416 -11.374148,-4.27434 -19.550622,-12.63382 -23.284138,-23.80528 -0.604631,-1.80919 -1.050236,-3.7128 -0.990233,-4.23026 0.09843,-0.84886 0.298795,-0.96985 2.049374,-1.23749 2.663084,-0.40716 9.461989,-0.068 12.876388,0.64232 4.180619,0.86973 9.442849,3.05736 13.229169,5.49969 4.10875,2.65032 9.06013,7.55643 11.45111,11.34641 0.94864,1.50371 1.932,2.73403 2.18523,2.73403 0.25324,0 0.80231,-0.67469 1.22017,-1.49931 1.58437,-3.12664 5.17922,-7.91473 8.70401,-11.59313 7.70208,-8.03774 16.68679,-14.14538 25.91656,-17.61758 3.56972,-1.34292 3.60979,-1.43334 2.35017,-5.30325 -1.09309,-3.35829 -2.52872,-6.20256 -4.99452,-9.89517 -1.21349,-1.81723 -2.34736,-3.52763 -2.51971,-3.80087 -0.26403,-0.4186 0.1525,-0.46277 2.64583,-0.28057 3.94734,0.28846 7.9599,1.35874 11.57699,3.08796 5.95082,2.8449 9.79832,6.36473 12.3786,11.32435 1.32946,2.5554 1.53468,2.77627 2.91684,3.13936 8.3837,2.20238 18.76851,7.75537 27.23954,14.56558 3.46443,2.7852 9.25631,8.73155 11.73872,12.05179 2.39064,3.1975 4.8627,7.97966 5.58917,10.81215 1.18989,4.63938 -0.10936,9.90983 -3.95161,16.02982 -4.23064,6.73864 -11.4035,13.79442 -19.02142,18.71095 -1.16455,0.75159 -2.6852,1.80121 -3.37922,2.3325 -3.15105,2.41217 -12.98368,6.34304 -18.84508,7.53384 -2.66565,0.54155 -2.94333,0.68911 -5.00517,2.65964 -2.4987,2.38804 -5.5272,3.95116 -9.13683,4.71585 -2.26223,0.47926 -6.43711,0.63665 -8.083,0.30473 z m 5.64445,-3.83281 c 0,-0.46311 -0.27276,-0.7443 -0.79375,-0.81829 -0.65112,-0.0925 -0.79375,0.0546 -0.79375,0.81829 0,0.76371 0.14263,0.91076 0.79375,0.81828 0.52099,-0.074 0.79375,-0.35518 0.79375,-0.81828 z m -54.97283,-26.4209 c 0.78483,-0.67507 0.98179,-1.14261 0.98179,-2.33049 0,-1.18788 -0.19696,-1.65542 -0.98179,-2.3305 -2.18622,-1.8805 -5.17578,-0.53439 -5.17578,2.3305 0,2.86489 2.98956,4.211 5.17578,2.33049 z m 94.44392,-8.74369 c 10.48947,-3.44647 14.84,-16.14712 8.7481,-25.53863 -3.41702,-5.26781 -8.59081,-7.80365 -15.26578,-7.48223 -3.01746,0.1453 -3.74886,0.31725 -6.10123,1.43439 -10.65434,5.05972 -13.30829,18.67192 -5.28122,27.08746 4.76926,5.00007 11.34496,6.6528 17.90013,4.49901 z m -7.46646,-5.72583 c -2.73763,-0.89318 -4.74265,-2.68944 -6.33596,-5.67625 -1.30454,-2.44547 -1.34362,-6.56185 -0.0869,-9.15734 1.72233,-3.55721 4.92752,-5.8032 8.71553,-6.10727 l 2.21523,-0.17782 v 1.47693 c 0,2.45569 0.99917,3.76363 3.37869,4.42278 0.43749,0.12119 1.39212,-0.14754 2.3687,-0.66679 l 1.63585,-0.86979 0.71691,0.9114 c 1.51366,1.92432 1.92769,6.17888 0.90185,9.26741 -0.74361,2.23878 -2.97729,4.7517 -5.25431,5.91116 -2.1968,1.11862 -5.94161,1.42053 -8.25555,0.66558 z m 0.20398,-13.6843 c 0.75321,-0.75321 0.50187,-2.33116 -0.47307,-2.96997 -1.81465,-1.189 -3.8877,1.10462 -2.44212,2.70196 0.69855,0.7719 2.26709,0.9161 2.91519,0.26801 z m -85.74254,18.1506 c 0.19289,-0.57931 -0.91245,-0.99284 -1.38654,-0.51874 -0.20289,0.20288 -0.25679,0.55025 -0.11979,0.77193 0.3117,0.50434 1.30998,0.33654 1.50633,-0.25319 z m -13.14107,-25.84116 c 0,-0.68924 -0.20212,-0.90538 -0.92507,-0.98922 -1.06763,-0.12381 -1.62282,0.78626 -0.96397,1.58013 0.67665,0.81531 1.88904,0.43607 1.88904,-0.59091 z m -6.718582,-2.3358 c 0.697391,-0.26762 1.603305,-1.9432 1.603305,-2.96548 0,-1.15798 -1.861293,-2.81261 -3.163898,-2.81261 -2.471311,0 -3.801083,3.33412 -2.066274,5.18074 0.762019,0.81113 2.376718,1.07707 3.626867,0.59735 z m 6.718582,-3.48986 c 0,-0.9871 -1.03327,-0.87771 -1.17518,0.12441 -0.0906,0.63987 0.0282,0.7972 0.52917,0.70072 0.36758,-0.0708 0.64601,-0.42641 0.64601,-0.82513 z M 175.506,204.94278 c 1.1225,-0.78623 0.93686,-2.57137 -0.34165,-3.28551 -0.83244,-0.46497 -1.02583,-0.45607 -1.85209,0.0853 -1.19196,0.781 -1.26289,2.42655 -0.13854,3.21407 0.98493,0.68988 1.33045,0.68782 2.33228,-0.0139 z m -7.07773,-5.36802 c 0.0768,-0.23041 -0.11172,-0.41893 -0.41893,-0.41893 -0.30721,0 -0.55856,0.25136 -0.55856,0.55857 0,0.62298 0.75944,0.51448 0.97749,-0.13964 z"
         id="path6065"
         inkscape:connector-curvature="0" />
      <path
         style="fill:#a0a09c;stroke-width:0.35277775"
         d="m 163.5014,299.69021 c -2.83681,-0.44517 -4.27716,-0.8531 -4.39114,-1.24365 -0.054,-0.18511 0.61271,-0.78742 1.48164,-1.33847 2.05381,-1.30247 5.44777,-4.40989 5.44777,-4.98784 0,-0.25728 -1.62845,-1.01012 -3.79236,-1.75323 -13.887,-4.76894 -27.93168,-15.8478 -33.8311,-26.687 -1.11161,-2.04238 -1.94927,-2.22831 -2.62756,-0.58322 -1.6937,4.10783 -7.92163,11.19247 -12.62239,14.35874 -3.2897,2.21583 -8.35667,4.50852 -12.29263,5.56213 -3.074648,0.82306 -4.127291,0.92647 -9.692821,0.95227 -4.24082,0.0197 -6.372849,-0.10014 -6.646564,-0.37345 -0.634133,-0.63322 0.805662,-5.35213 2.998689,-9.82816 4.496468,-9.17742 12.939396,-16.35536 22.856046,-19.43155 2.02078,-0.62686 2.61521,-1.38128 1.41111,-1.79088 -2.83173,-0.96329 -7.24552,-2.87691 -9.03191,-3.91583 -8.185271,-4.76039 -14.108801,-12.08307 -17.173116,-21.22944 -1.207462,-3.60403 -1.288103,-4.49285 -0.429697,-4.73604 3.107582,-0.8804 11.178247,-0.44374 16.229763,0.8781 9.6829,2.53374 18.86828,9.38718 23.44132,17.49017 0.58914,1.0439 1.249,1.83873 1.46635,1.76628 0.21735,-0.0725 1.11254,-1.32723 1.98932,-2.78839 4.81632,-8.02647 12.0728,-15.43907 20.80427,-21.25185 3.79,-2.52311 9.96168,-5.7043 13.4155,-6.91503 1.26118,-0.44211 2.47545,-1.02555 2.69838,-1.29655 1.04573,-1.27124 -2.21098,-9.32385 -5.99405,-14.82102 -1.0978,-1.5952 -1.996,-3.00616 -1.996,-3.13547 0,-0.43916 5.15679,0.2298 8.34154,1.08209 8.97043,2.40065 14.74885,6.87252 18.61214,14.40378 0.87063,1.69725 0.60567,1.55444 6.20743,3.34553 7.52936,2.40739 17.35796,8.1962 24.98835,14.71752 8.5281,7.28854 14.47257,15.67626 15.85784,22.37561 0.53179,2.57176 0.52973,2.95836 -0.0295,5.53525 -0.78209,3.60396 -3.46724,9.02332 -6.36116,12.83855 -4.04249,5.32946 -13.01091,13.33813 -18.2067,16.25832 -0.7877,0.44272 -1.43218,0.92079 -1.43218,1.06239 0,0.41429 -4.10816,2.58761 -8.13867,4.30556 -4.11433,1.75368 -7.25855,2.75798 -11.26411,3.59789 -2.28815,0.4798 -2.86044,0.76189 -4.23333,2.08674 -2.55189,2.46257 -4.51681,3.68096 -7.41074,4.59515 -3.09536,0.97782 -7.67136,1.36239 -10.64975,0.895 z m 6.12646,-2.69323 c 0.83029,-0.7514 0.81475,-1.26998 -0.0618,-2.06329 -1.47592,-1.33569 -3.32259,0.68383 -1.91364,2.09277 0.70634,0.70635 1.17006,0.69943 1.97549,-0.0295 z m -54.65277,-27.27891 c 2.11735,-2.34873 0.56595,-6.16426 -2.50641,-6.16426 -3.85425,0 -5.32886,4.64791 -2.15653,6.79726 1.60915,1.09024 3.31867,0.85817 4.66294,-0.633 z m 92.64615,-7.92752 c 9.25995,-2.46462 15.07598,-11.7702 12.96408,-20.74237 -3.24544,-13.78789 -19.70309,-18.67587 -29.50315,-8.76252 -3.62635,3.66827 -5.28695,7.55628 -5.28695,12.3785 0,7.90752 5.47692,15.02965 13.14611,17.09505 2.41247,0.64971 6.30381,0.66376 8.67991,0.0313 z m -6.22555,-6.68764 c -2.73763,-0.89318 -4.74265,-2.68944 -6.33596,-5.67625 -1.30454,-2.44547 -1.34362,-6.56185 -0.0869,-9.15734 1.72233,-3.55721 4.92752,-5.8032 8.71553,-6.10727 l 2.21523,-0.17782 v 1.47693 c 0,2.45569 0.99917,3.76363 3.37869,4.42278 0.43749,0.12119 1.39212,-0.14754 2.3687,-0.66679 l 1.63585,-0.86979 0.71691,0.9114 c 1.51366,1.92432 1.92769,6.17888 0.90185,9.26741 -0.74361,2.23878 -2.97729,4.7517 -5.25431,5.91116 -2.1968,1.11862 -5.94161,1.42053 -8.25555,0.66558 z m 0.20398,-13.6843 c 0.75321,-0.75321 0.50187,-2.33116 -0.47307,-2.96997 -1.81465,-1.189 -3.8877,1.10462 -2.44212,2.70196 0.69855,0.7719 2.26709,0.9161 2.91519,0.26801 z m -85.725,19.05 c 0.5891,-0.5891 0.52823,-1.51989 -0.1354,-2.07066 -1.09977,-0.91272 -2.47791,0.85632 -1.54387,1.98177 0.51697,0.62291 1.11366,0.65449 1.67927,0.0889 z m -13.27533,-25.41764 c 0.89522,-0.7213 1.00599,-1.58848 0.31235,-2.4451 -0.55701,-0.68787 -0.79628,-0.75306 -1.65801,-0.45172 -1.19473,0.41779 -1.536655,1.87586 -0.64824,2.76427 0.68763,0.68764 1.25792,0.72555 1.9939,0.13255 z m -6.402607,-3.26685 c 3.172155,-1.64038 1.881614,-6.52273 -1.724141,-6.52273 -1.94386,0 -3.202265,1.11763 -3.46514,3.0775 -0.181831,1.35566 -0.08832,1.60029 1.044869,2.73348 1.379879,1.37988 2.48529,1.56972 4.144412,0.71175 z m 6.872107,-3.8769 c 0,-0.88084 -0.14147,-1.05833 -0.8435,-1.05833 -0.98637,0 -1.66073,0.88114 -1.33132,1.73956 0.15697,0.40905 0.54073,0.56506 1.20267,0.48892 0.82013,-0.0943 0.97215,-0.27731 0.97215,-1.17015 z m 73.02911,-22.75872 c 1.46235,-1.61587 0.35195,-4.22878 -1.79708,-4.22878 -1.23829,0 -2.61676,1.30087 -2.61676,2.46945 0,0.33572 0.32902,1.02868 0.73116,1.53992 0.91483,1.16301 2.73082,1.27121 3.68268,0.21941 z m -7.23606,-5.47457 c 0,-1.09265 -0.91626,-1.51692 -1.6631,-0.77008 -0.74683,0.74683 -0.32256,1.66309 0.77008,1.66309 0.72032,0 0.89302,-0.17269 0.89302,-0.89301 z"
         id="path6063"
         inkscape:connector-curvature="0" />
      <path
         style="fill:#ea6786;stroke-width:0.35277775"
         d="m 163.5014,299.69021 c -2.83681,-0.44517 -4.27716,-0.8531 -4.39114,-1.24365 -0.054,-0.18511 0.61271,-0.78742 1.48164,-1.33847 2.05381,-1.30247 5.44777,-4.40989 5.44777,-4.98784 0,-0.25728 -1.62845,-1.01012 -3.79236,-1.75323 -13.887,-4.76894 -27.93168,-15.8478 -33.8311,-26.687 -1.11161,-2.04238 -1.94927,-2.22831 -2.62756,-0.58322 -1.6937,4.10783 -7.92163,11.19247 -12.62239,14.35874 -3.2897,2.21583 -8.35667,4.50852 -12.29263,5.56213 -3.074648,0.82306 -4.127291,0.92647 -9.692821,0.95227 -4.24082,0.0197 -6.372849,-0.10014 -6.646564,-0.37345 -0.634133,-0.63322 0.805662,-5.35213 2.998689,-9.82816 4.496468,-9.17742 12.939396,-16.35536 22.856046,-19.43155 2.02078,-0.62686 2.61521,-1.38128 1.41111,-1.79088 -2.83173,-0.96329 -7.24552,-2.87691 -9.03191,-3.91583 -8.185271,-4.76039 -14.108801,-12.08307 -17.173116,-21.22944 -1.207462,-3.60403 -1.288103,-4.49285 -0.429697,-4.73604 3.107582,-0.8804 11.178247,-0.44374 16.229763,0.8781 9.6829,2.53374 18.86828,9.38718 23.44132,17.49017 0.58914,1.0439 1.249,1.83873 1.46635,1.76628 0.21735,-0.0725 1.11254,-1.32723 1.98932,-2.78839 4.81632,-8.02647 12.0728,-15.43907 20.80427,-21.25185 3.79,-2.52311 9.96168,-5.7043 13.4155,-6.91503 1.26118,-0.44211 2.47545,-1.02555 2.69838,-1.29655 1.04573,-1.27124 -2.21098,-9.32385 -5.99405,-14.82102 -1.0978,-1.5952 -1.996,-3.00616 -1.996,-3.13547 0,-0.43916 5.15679,0.2298 8.34154,1.08209 8.97043,2.40065 14.74885,6.87252 18.61214,14.40378 0.87063,1.69725 0.60567,1.55444 6.20743,3.34553 7.52936,2.40739 17.35796,8.1962 24.98835,14.71752 8.5281,7.28854 14.47257,15.67626 15.85784,22.37561 0.53179,2.57176 0.52973,2.95836 -0.0295,5.53525 -0.78209,3.60396 -3.46724,9.02332 -6.36116,12.83855 -4.04249,5.32946 -13.01091,13.33813 -18.2067,16.25832 -0.7877,0.44272 -1.43218,0.92079 -1.43218,1.06239 0,0.41429 -4.10816,2.58761 -8.13867,4.30556 -4.11433,1.75368 -7.25855,2.75798 -11.26411,3.59789 -2.28815,0.4798 -2.86044,0.76189 -4.23333,2.08674 -2.55189,2.46257 -4.51681,3.68096 -7.41074,4.59515 -3.09536,0.97782 -7.67136,1.36239 -10.64975,0.895 z m 6.12646,-2.69323 c 0.83029,-0.7514 0.81475,-1.26998 -0.0618,-2.06329 -1.47592,-1.33569 -3.32259,0.68383 -1.91364,2.09277 0.70634,0.70635 1.17006,0.69943 1.97549,-0.0295 z m -54.65277,-27.27891 c 2.11735,-2.34873 0.56595,-6.16426 -2.50641,-6.16426 -3.85425,0 -5.32886,4.64791 -2.15653,6.79726 1.60915,1.09024 3.31867,0.85817 4.66294,-0.633 z m 92.64615,-7.92752 c 9.25995,-2.46462 15.07598,-11.7702 12.96408,-20.74237 -3.24544,-13.78789 -19.70309,-18.67587 -29.50315,-8.76252 -3.62635,3.66827 -5.28695,7.55628 -5.28695,12.3785 0,7.90752 5.47692,15.02965 13.14611,17.09505 2.41247,0.64971 6.30381,0.66376 8.67991,0.0313 z m -6.65481,-7.15828 c -0.9986,-0.35236 -2.32803,-1.30181 -3.59051,-2.5643 -1.59868,-1.59868 -2.12589,-2.4214 -2.60271,-4.06157 -0.7203,-2.47776 -0.54497,-5.36552 0.46429,-7.64712 1.49323,-3.37569 5.5359,-6.06625 8.80087,-5.85734 1.53024,0.0979 1.67827,0.18355 1.57667,0.91219 -0.48459,3.47521 3.41947,5.83883 6.49973,3.93513 l 1.17922,-0.7288 0.70595,1.16084 c 1.57567,2.59098 1.66549,6.976 0.20089,9.80821 -1.77203,3.42674 -5.50998,5.6761 -9.35561,5.62986 -1.26118,-0.0152 -3.00664,-0.27936 -3.87879,-0.5871 z m 0.89925,-13.2991 c 0.75186,-1.14748 0.53792,-2.26717 -0.59404,-3.10904 -2.23178,-1.65981 -4.53989,1.45116 -2.55172,3.43933 0.84176,0.84176 2.49129,0.66857 3.14576,-0.33029 z m -85.99101,19.13544 c 0.5891,-0.5891 0.52823,-1.51989 -0.1354,-2.07066 -1.09977,-0.91272 -2.47791,0.85632 -1.54387,1.98177 0.51697,0.62291 1.11366,0.65449 1.67927,0.0889 z m -13.27533,-25.41764 c 0.89522,-0.7213 1.00599,-1.58848 0.31235,-2.4451 -0.55701,-0.68787 -0.79628,-0.75306 -1.65801,-0.45172 -1.19473,0.41779 -1.536655,1.87586 -0.64824,2.76427 0.68763,0.68764 1.25792,0.72555 1.9939,0.13255 z m -6.402607,-3.26685 c 3.172155,-1.64038 1.881614,-6.52273 -1.724141,-6.52273 -1.94386,0 -3.202265,1.11763 -3.46514,3.0775 -0.181831,1.35566 -0.08832,1.60029 1.044869,2.73348 1.379879,1.37988 2.48529,1.56972 4.144412,0.71175 z m 6.872107,-3.8769 c 0,-0.88084 -0.14147,-1.05833 -0.8435,-1.05833 -0.98637,0 -1.66073,0.88114 -1.33132,1.73956 0.15697,0.40905 0.54073,0.56506 1.20267,0.48892 0.82013,-0.0943 0.97215,-0.27731 0.97215,-1.17015 z m 73.02911,-22.75872 c 1.46235,-1.61587 0.35195,-4.22878 -1.79708,-4.22878 -1.23829,0 -2.61676,1.30087 -2.61676,2.46945 0,0.33572 0.32902,1.02868 0.73116,1.53992 0.91483,1.16301 2.73082,1.27121 3.68268,0.21941 z m -7.23606,-5.47457 c 0,-1.09265 -0.91626,-1.51692 -1.6631,-0.77008 -0.74683,0.74683 -0.32256,1.66309 0.77008,1.66309 0.72032,0 0.89302,-0.17269 0.89302,-0.89301 z"
         id="path6061"
         inkscape:connector-curvature="0" />
      <path
         style="fill:#e7627c;stroke-width:0.35277775"
         d="m 161.72441,299.20383 c -2.29247,-0.49262 -2.8112,-0.82869 -1.98914,-1.28873 1.07859,-0.60361 4.71885,-3.44533 5.54257,-4.32673 1.38949,-1.48678 0.94344,-1.98321 -2.94234,-3.27474 -6.69101,-2.2239 -14.64817,-6.67111 -20.45677,-11.43315 -4.05258,-3.32241 -9.39896,-9.10268 -11.74379,-12.69687 -3.0798,-4.72076 -3.08739,-4.73048 -3.49612,-4.47787 -0.20254,0.12518 -1.10669,1.5411 -2.0092,3.14648 -2.1718,3.8632 -5.52601,7.78605 -9.10777,10.65181 -3.494,2.79555 -9.46426,5.85748 -13.81013,7.08272 -4.158362,1.17238 -10.150597,1.75719 -13.988714,1.36523 l -2.998611,-0.30623 0.04012,-1.32135 c 0.08295,-2.7323 2.687474,-8.92523 5.491801,-13.05817 4.400504,-6.48534 11.819004,-11.98808 19.620984,-14.55402 3.68948,-1.21342 3.70135,-1.72231 0.0699,-2.99663 -10.740673,-3.76907 -19.016149,-11.49786 -23.281371,-21.74339 -1.413186,-3.39462 -2.191165,-6.74052 -1.645675,-7.07766 0.224953,-0.13902 2.345673,-0.31725 4.712712,-0.39605 10.845504,-0.36106 20.734834,3.30757 28.502004,10.57337 2.5001,2.33873 5.02908,5.51527 6.48667,8.14765 0.52127,0.94139 1.1806,1.67283 1.51052,1.67569 0.36453,0.003 1.11712,-0.96013 1.99423,-2.55255 5.4379,-9.87263 16.99753,-20.308 28.8175,-26.01479 2.32834,-1.12414 5.05456,-2.30767 6.05827,-2.63007 2.67243,-0.85839 2.85319,-1.2008 2.12356,-4.02259 -0.80283,-3.10484 -3.31812,-8.28039 -5.71596,-11.76134 -1.06519,-1.54632 -1.9367,-2.94248 -1.9367,-3.10258 0,-0.16009 0.67469,-0.21992 1.49931,-0.13295 11.65891,1.2296 20.27051,6.40473 24.60625,14.78709 l 1.23472,2.38711 3.35139,0.94663 c 3.7912,1.07085 6.71148,2.1612 7.93439,2.96249 0.45667,0.29922 2.21914,1.2705 3.91659,2.15841 14.11043,7.3809 26.89697,20.14297 30.28059,30.22263 1.51849,4.52348 1.20389,7.96885 -1.20447,13.1911 -3.35644,7.27806 -10.45587,15.21553 -18.8411,21.06516 -1.72568,1.20386 -3.78944,2.70111 -4.5861,3.32723 -3.64549,2.86506 -12.47018,6.61328 -19.07241,8.10087 -3.797,0.85552 -3.90443,0.90732 -6.05612,2.92012 -3.66258,3.42617 -7.94151,4.95983 -13.71442,4.91555 -1.74625,-0.0134 -4.08499,-0.21989 -5.1972,-0.45888 z m 8.25623,-1.85407 c 1.24398,-1.12578 0.3717,-3.29671 -1.32462,-3.29671 -1.69021,0 -2.49005,1.95021 -1.32695,3.23542 0.72607,0.80229 1.80521,0.82724 2.65157,0.0613 z m -55.51349,-26.58908 c 0.65635,-0.40017 1.40961,-1.28794 1.72002,-2.02716 1.92242,-4.57819 -5.18964,-8.0255 -7.46792,-3.61979 -2.04056,3.94601 2.01028,7.92571 5.7479,5.64695 z m 105.89,-2.2787 c 1.17442,-0.60731 2.32961,-2.10657 2.67091,-3.46642 0.36861,-1.46865 -0.66263,-1.20405 -1.21031,0.31055 -0.57013,1.57665 -2.2148,2.61832 -4.13676,2.62007 -1.73822,10e-4 -3.17443,-0.99732 -3.88742,-2.70375 -0.52626,-1.25952 -1.18808,-1.57099 -1.18592,-0.55813 0.002,1.00193 1.31584,2.86352 2.5531,3.61788 1.37374,0.83758 3.76443,0.9203 5.1964,0.1798 z m -12.68971,-6.20902 c 2.79074,-0.64273 6.05608,-2.50495 8.29816,-4.73241 7.19848,-7.15154 7.271,-18.46473 0.16393,-25.5718 -8.10589,-8.10589 -21.42755,-6.73841 -27.83533,2.85732 -3.83411,5.74162 -3.87193,13.74746 -0.0924,19.56493 2.3611,3.63424 5.813,6.28673 9.86931,7.58369 2.28095,0.7293 7.0775,0.87839 9.59636,0.29827 z m -6.70101,-7.64069 c -0.9986,-0.35236 -2.32803,-1.30181 -3.59051,-2.5643 -1.59868,-1.59868 -2.12589,-2.4214 -2.60271,-4.06157 -0.7203,-2.47776 -0.54497,-5.36552 0.46429,-7.64712 1.49323,-3.37569 5.5359,-6.06625 8.80087,-5.85734 1.53024,0.0979 1.67827,0.18355 1.57667,0.91219 -0.48459,3.47521 3.41947,5.83883 6.49973,3.93513 l 1.17922,-0.7288 0.70595,1.16084 c 1.57567,2.59098 1.66549,6.976 0.20089,9.80821 -1.77203,3.42674 -5.50998,5.6761 -9.35561,5.62986 -1.26118,-0.0152 -3.00664,-0.27936 -3.87879,-0.5871 z m 0.89925,-13.2991 c 0.75186,-1.14748 0.53792,-2.26717 -0.59404,-3.10904 -2.23178,-1.65981 -4.53989,1.45116 -2.55172,3.43933 0.84176,0.84176 2.49129,0.66857 3.14576,-0.33029 z m -85.35885,19.0296 c 0.53531,-0.81698 0.53531,-0.9469 0,-1.76389 -1.02351,-1.56207 -3.03105,-0.97793 -3.03105,0.88195 0,1.85988 2.00754,2.44401 3.03105,0.88194 z m -13.2616,-25.22361 c 0.38805,-0.38805 0.70555,-1.02305 0.70555,-1.41111 0,-0.38805 -0.3175,-1.02305 -0.70555,-1.41111 -1.37606,-1.37606 -3.527781,-0.57073 -3.527781,1.32034 0,1.98085 2.138421,2.89125 3.527781,1.50188 z m -6.732832,-2.98307 c 0.546284,-0.28249 1.276066,-1.10963 1.621738,-1.83808 0.562342,-1.18504 0.576631,-1.47324 0.135765,-2.73806 -0.519927,-1.49165 -2.333276,-3.02412 -3.578389,-3.02412 -1.206316,0 -3.101788,1.12013 -3.632658,2.14672 -0.905416,1.75088 -0.665893,3.41601 0.685818,4.76772 1.351712,1.35172 3.016844,1.59124 4.767726,0.68582 z m 6.732832,-3.01415 c 0.80028,-0.80029 0.85916,-1.17047 0.34036,-2.13986 -0.41389,-0.77336 -2.06846,-0.92982 -2.73925,-0.25903 -0.59742,0.59742 -0.52536,1.70143 0.16051,2.45931 0.75292,0.83197 1.36244,0.81552 2.23838,-0.0604 z m 72.9312,-23.50091 c 2.3616,-1.4889 0.8592,-5.19168 -2.10652,-5.19168 -2.15474,0 -3.46449,2.80477 -2.17166,4.65054 1.03505,1.47775 2.49888,1.66291 4.27818,0.54114 z m -7.13685,-5.07552 c 1.29913,-1.43552 -0.85361,-3.41487 -2.2238,-2.04468 -0.62384,0.62384 -0.51465,1.95787 0.19403,2.37063 0.90663,0.52807 1.31645,0.46226 2.02977,-0.32595 z"
         id="path6059"
         inkscape:connector-curvature="0" />
      <path
         style="fill:#e75877;stroke-width:0.35277775"
         d="m 163.21745,299.33379 c -1.06716,-0.17834 -2.38991,-0.45158 -2.93945,-0.60719 l -0.99918,-0.28295 1.88112,-1.31282 c 1.03461,-0.72206 2.65631,-1.99456 3.60378,-2.82779 2.39861,-2.1094 2.15743,-2.61949 -1.83423,-3.87939 -13.55581,-4.27867 -28.46027,-15.99399 -34.54135,-27.15046 -1.24433,-2.28286 -1.93527,-2.20449 -3.23321,0.36672 -1.38533,2.74432 -4.7872,7.25425 -7.12608,9.4472 -5.92624,5.55647 -13.35345,9.22123 -21.086943,10.40482 -2.683185,0.41065 -11.794528,0.34314 -12.227527,-0.0906 -0.399584,-0.40027 1.488293,-6.43496 2.875489,-9.19164 4.68703,-9.31422 13.192051,-16.57225 22.887301,-19.5316 3.41635,-1.0428 3.38482,-1.83605 -0.11881,-2.98958 -11.663113,-3.83995 -20.948844,-13.14618 -24.539053,-24.59324 -1.383834,-4.41223 -1.515605,-4.18447 2.59105,-4.4784 14.134003,-1.01163 27.737743,5.72375 35.445243,17.54939 1.10652,1.69774 2.136,3.0868 2.28773,3.0868 0.44134,0 1.24058,-1.07903 2.48242,-3.35139 1.74026,-3.18441 4.71591,-7.01034 8.46927,-10.88932 7.35333,-7.59943 15.82018,-13.27478 25.06409,-16.8005 3.21441,-1.22601 3.35597,-1.32514 3.46348,-2.42536 0.24256,-2.48223 -2.69934,-9.28804 -6.15829,-14.24662 l -1.90718,-2.73403 1.33086,0.005 c 2.12836,0.007 7.44079,1.22922 10.51176,2.41761 5.87477,2.27339 11.10355,6.69988 13.65927,11.56343 0.72205,1.37406 1.51402,2.66166 1.75993,2.86132 0.24592,0.19967 1.71711,0.7157 3.26934,1.14673 3.31425,0.92033 7.18705,2.39186 7.9375,3.01597 0.29104,0.24205 1.95791,1.18367 3.70416,2.09249 3.94191,2.05154 10.0855,6.07671 13.58195,8.89865 4.26608,3.4431 10.55185,10.16526 13.13343,14.0452 4.17831,6.27976 5.53069,11.1078 4.37499,15.61893 -2.27831,8.8931 -10.69541,19.1417 -22.00634,26.79475 -2.18281,1.47691 -3.96875,2.80324 -3.96875,2.9474 0,0.37901 -3.51007,2.23738 -7.58472,4.01567 -3.67527,1.60398 -9.44024,3.4395 -12.17083,3.8751 -1.86994,0.2983 -2.58616,0.71728 -5.06762,2.9645 -3.15531,2.85747 -6.65006,4.16344 -11.86572,4.43417 -1.64923,0.0856 -3.87173,0.01 -4.93888,-0.1686 z m 6.8952,-1.91332 c 0.47625,-0.47625 0.86591,-1.08984 0.86591,-1.36353 0,-0.90365 -1.42959,-2.35667 -2.31866,-2.35667 -1.10967,0 -2.26745,1.17086 -2.26745,2.29306 0,1.06637 1.14089,2.29305 2.1327,2.29305 0.39687,0 1.11125,-0.38966 1.5875,-0.86591 z m -56.1556,-26.07884 c 1.80861,-0.75568 2.69373,-2.13001 2.69373,-4.18254 0,-1.51348 -0.15927,-1.91087 -1.17162,-2.92322 -1.45278,-1.45277 -3.17541,-1.8368 -4.93724,-1.10067 -3.44908,1.44112 -3.54293,6.69308 -0.146,8.16983 1.45311,0.6317 2.12044,0.63856 3.56113,0.0366 z m 106.76676,-2.77677 c 1.55178,-1.05614 2.47125,-2.35118 2.56525,-3.61309 0.0548,-0.73551 -0.099,-1.07006 -0.53341,-1.16012 -0.4373,-0.0906 -0.77485,0.28444 -1.19026,1.32265 -1.38416,3.45935 -6.38906,3.34603 -7.54977,-0.17093 -0.27617,-0.83681 -0.62217,-1.22921 -1.08387,-1.22921 -1.61097,0 -0.05,3.64001 2.09412,4.88333 1.75604,1.01827 4.17419,1.00442 5.69794,-0.0326 z m -12.95166,-6.08157 c 6.63177,-1.72736 11.9215,-7.07816 13.4632,-13.61863 3.02796,-12.84574 -8.33484,-24.64336 -21.36906,-22.1868 -6.57581,1.23934 -12.502,6.82585 -14.26416,13.44655 -0.64572,2.42605 -0.6457,6.65354 4e-5,9.07966 1.70511,6.40636 7.11073,11.78574 13.36855,13.30366 2.52074,0.61144 6.40149,0.60066 8.80143,-0.0245 z m -6.80572,-7.85102 c -0.9986,-0.35236 -2.32803,-1.30181 -3.59051,-2.5643 -1.59868,-1.59868 -2.12589,-2.4214 -2.60271,-4.06157 -0.7203,-2.47776 -0.54497,-5.36552 0.46429,-7.64712 1.49323,-3.37569 5.5359,-6.06625 8.80087,-5.85734 1.53024,0.0979 1.67827,0.18355 1.57667,0.91219 -0.48459,3.47521 3.41947,5.83883 6.49973,3.93513 l 1.17922,-0.7288 0.70595,1.16084 c 1.57567,2.59098 1.66549,6.976 0.20089,9.80821 -1.77203,3.42674 -5.50998,5.6761 -9.35561,5.62986 -1.26118,-0.0152 -3.00664,-0.27936 -3.87879,-0.5871 z m 0.89925,-13.2991 c 0.75186,-1.14748 0.53792,-2.26717 -0.59404,-3.10904 -2.23178,-1.65981 -4.53989,1.45116 -2.55172,3.43933 0.84176,0.84176 2.49129,0.66857 3.14576,-0.33029 z m -85.64617,19.71516 c 1.43966,-1.00838 0.64442,-3.68417 -1.09493,-3.68417 -1.84904,0 -2.71901,2.63249 -1.21753,3.68417 0.43123,0.30204 0.95153,0.54917 1.15623,0.54917 0.2047,0 0.725,-0.24713 1.15623,-0.54917 z m -12.95457,-25.50142 c 1.68979,-1.3683 0.5688,-4.2883 -1.64629,-4.2883 -2.002102,0 -2.933593,2.5825 -1.48693,4.1224 0.92503,0.98465 2.04864,1.04414 3.13322,0.1659 z m -6.710943,-3.05955 c 2.188864,-1.13191 2.822755,-4.55509 1.2005,-6.48303 -2.808997,-3.3383 -8.14174,-0.92407 -7.444841,3.37041 0.472315,2.91054 3.610301,4.47474 6.244341,3.11262 z m 7.271373,-3.5501 c 1.22476,-1.86922 -1.40535,-3.92916 -3.08078,-2.41292 -0.773366,0.69988 -0.875582,1.87626 -0.23339,2.68598 0.92079,1.16101 2.45749,1.0344 3.31417,-0.27306 z m 72.68175,-23.2176 c 0.78482,-0.67508 0.98179,-1.14262 0.98179,-2.33049 0,-2.9638 -3.34887,-4.2741 -5.47916,-2.14381 -1.38642,1.38642 -1.38642,2.90119 0,4.28761 1.32392,1.32391 3.09003,1.39723 4.49737,0.18669 z m -7.9829,-4.45525 c 1.17199,-0.62722 1.52334,-1.6853 0.88378,-2.6614 -0.65185,-0.99484 -1.79937,-1.11049 -2.72319,-0.27445 -0.87714,0.7938 -0.81203,2.08148 0.13891,2.74755 0.92957,0.65109 0.85186,0.64248 1.7005,0.1883 z"
         id="path6057"
         inkscape:connector-curvature="0" />
      <path
         style="fill:#e14660;stroke-width:0.35277775"
         d="m 172.74244,293.13076 c -0.48506,-0.0855 -1.95711,-0.32477 -3.27122,-0.53174 -1.3141,-0.20698 -2.5969,-0.58394 -2.85066,-0.8377 -0.25376,-0.25376 -2.13669,-1.02197 -4.18429,-1.70714 -6.65457,-2.22676 -14.33,-6.48286 -20.15818,-11.17789 -5.15376,-4.15174 -11.50179,-11.39336 -13.66188,-15.585 -0.36982,-0.71765 -1.06051,-1.69291 -1.53484,-2.16725 -3.11362,-3.11362 -3.36762,-14.61148 -0.39478,-17.87099 0.4424,-0.48507 1.30563,-1.83906 1.91828,-3.00887 2.57311,-4.91316 9.00719,-12.21535 15.04143,-17.07089 5.80019,-4.6672 12.12559,-8.34616 18.68833,-10.86944 1.74673,-0.67159 3.414,-1.4306 3.70504,-1.68668 0.71559,-0.62964 5.11935,-1.49891 8.99583,-1.77573 3.55076,-0.25356 8.34451,0.24285 9.90732,1.02595 0.56584,0.28353 3.11004,1.17398 5.65379,1.97878 2.54375,0.80479 4.79822,1.6365 5.00994,1.84822 0.27808,0.27808 -0.41828,1.24236 -2.50833,3.4734 -14.00739,14.9523 -15.32381,38.08132 -3.09648,54.40404 2.31879,3.09544 8.91655,9.18727 12.13758,11.20685 1.29422,0.81147 2.35312,1.54569 2.35312,1.6316 0,0.0859 -2.10343,1.16861 -4.6743,2.40598 -5.22185,2.5133 -9.55597,4.0407 -14.02292,4.94185 -1.64923,0.33271 -3.22138,0.78674 -3.49366,1.00896 -0.4924,0.40188 -7.77116,0.67881 -9.55912,0.36369 z m 11.96072,-7.74652 c 1.43366,-1.20634 1.99337,-3.24055 1.32404,-4.81204 -1.59911,-3.75448 -6.26385,-4.04417 -8.10149,-0.50313 -0.90501,1.74391 -0.56208,3.50628 0.98289,5.05125 1.01599,1.01599 1.40701,1.17162 2.94372,1.17162 1.38896,0 2.00533,-0.19625 2.85084,-0.9077 z m -9.94937,-4.36969 c 2.46402,-1.5024 2.81166,-4.49526 0.74626,-6.42464 -1.78132,-1.664 -5.07957,-1.22476 -6.13545,0.81708 -1.13606,2.19689 -0.31152,4.89469 1.77355,5.80292 1.4896,0.64884 2.30321,0.60488 3.61564,-0.19536 z m 5.5258,-7.09544 c 1.06146,-0.83494 1.16768,-1.59405 0.38035,-2.71812 -0.65645,-0.93721 -2.11823,-1.03351 -3.03902,-0.20021 -0.90112,0.8155 -0.82913,2.42228 0.13891,3.10032 1.02935,0.72099 1.40644,0.69375 2.51976,-0.18199 z M 142.2389,242.88926 c 2.64996,-2.48951 1.3376,-6.8124 -2.2127,-7.2886 -1.58131,-0.2121 -3.25921,0.49183 -4.12762,1.73165 -0.63034,0.89994 -0.73098,3.51337 -0.17529,4.5517 1.12004,2.0928 4.76015,2.65441 6.51561,1.00525 z m 9.0998,-4.2376 c 1.94961,-1.53357 1.4811,-4.57808 -0.88229,-5.73344 -1.16507,-0.56955 -1.41839,-0.5822 -2.51154,-0.12546 -2.52297,1.05417 -3.16429,3.71937 -1.33511,5.54854 1.28005,1.28005 3.32551,1.41429 4.72894,0.31036 z m -6.0525,-6.56578 c 1.20723,-1.09253 0.38228,-3.29672 -1.23385,-3.29672 -0.9441,0 -2.00157,0.9927 -2.00157,1.87899 0,1.69085 1.97657,2.55696 3.23542,1.41773 z m 31.74999,-8.81945 c 1.33957,-1.21229 0.30259,-4.00227 -1.48756,-4.00227 -0.93134,0 -2.45341,1.52207 -2.45341,2.45342 0,1.75688 2.58744,2.77378 3.94097,1.54885 z m 7.25973,-4.9035 c 0.91886,-1.04417 0.99629,-1.91712 0.29104,-3.28094 -1.42586,-2.7573 -5.49452,-1.75466 -5.49452,1.35402 0,2.94616 3.24809,4.14897 5.20348,1.92692 z m -8.74532,-2.43321 c 0.57476,-0.69253 0.34759,-1.59239 -0.55262,-2.18904 -0.65362,-0.43321 -0.84322,-0.41142 -1.57482,0.18099 -0.7354,0.5955 -0.783,0.78045 -0.41101,1.59689 0.47423,1.04082 1.8332,1.26094 2.53845,0.41116 z m 25.41583,38.70255 c -0.9986,-0.35236 -2.32803,-1.30181 -3.59051,-2.5643 -1.59868,-1.59868 -2.12589,-2.4214 -2.60271,-4.06157 -0.7203,-2.47776 -0.54497,-5.36552 0.46429,-7.64712 1.49323,-3.37569 5.5359,-6.06625 8.80087,-5.85734 1.53024,0.0979 1.67827,0.18355 1.57667,0.91219 -0.48459,3.47521 3.41947,5.83883 6.49973,3.93513 l 1.17922,-0.7288 0.70595,1.16084 c 1.57567,2.59098 1.66549,6.976 0.20089,9.80821 -1.77203,3.42674 -5.50998,5.6761 -9.35561,5.62986 -1.26118,-0.0152 -3.00664,-0.27936 -3.87879,-0.5871 z m 0.89925,-13.2991 c 0.75186,-1.14748 0.53792,-2.26717 -0.59404,-3.10904 -2.23178,-1.65981 -4.53989,1.45116 -2.55172,3.43933 0.84176,0.84176 2.49129,0.66857 3.14576,-0.33029 z"
         id="path6055"
         inkscape:connector-curvature="0" />
      <path
         style="fill:#80807e;stroke-width:0.35277775"
         d="m 200.96643,254.63227 c -0.9986,-0.35236 -2.32803,-1.30181 -3.59051,-2.5643 -1.59868,-1.59868 -2.12589,-2.4214 -2.60271,-4.06157 -0.7203,-2.47776 -0.54497,-5.36552 0.46429,-7.64712 1.49323,-3.37569 5.5359,-6.06625 8.80087,-5.85734 1.53024,0.0979 1.67827,0.18355 1.57667,0.91219 -0.48459,3.47521 3.41947,5.83883 6.49973,3.93513 l 1.17922,-0.7288 0.70595,1.16084 c 1.57567,2.59098 1.66549,6.976 0.20089,9.80821 -1.77203,3.42674 -5.50998,5.6761 -9.35561,5.62986 -1.26118,-0.0152 -3.00664,-0.27936 -3.87879,-0.5871 z m 0.89925,-13.2991 c 0.75186,-1.14748 0.53792,-2.26717 -0.59404,-3.10904 -2.23178,-1.65981 -4.53989,1.45116 -2.55172,3.43933 0.84176,0.84176 2.49129,0.66857 3.14576,-0.33029 z"
         id="path6053"
         inkscape:connector-curvature="0" />
      <path
         style="fill:#6d6e6d;stroke-width:0.35277775"
         d="m 202.72855,254.9193 c -4.9155,-1.11564 -8.11388,-4.99033 -8.11388,-9.82958 0,-2.95694 0.4998,-4.55095 2.08427,-6.64737 1.53683,-2.03338 4.30929,-3.57401 6.99975,-3.8897 l 1.85209,-0.21732 v 1.49402 c 0,1.86346 0.86374,3.37042 2.33087,4.06661 1.51824,0.72046 2.55608,0.67143 3.96458,-0.18728 1.48501,-0.90536 1.97096,-0.56569 2.69926,1.88679 1.93528,6.51675 -2.17501,12.76623 -8.83272,13.42972 -0.96222,0.0959 -2.30512,0.0482 -2.98422,-0.10589 z m -1.11246,-12.98916 c 1.74485,-1.47644 0.83461,-4.32153 -1.38259,-4.32153 -2.28582,0 -3.29582,2.8064 -1.51431,4.20773 1.13557,0.89324 1.93849,0.92478 2.8969,0.1138 z"
         id="path6051"
         inkscape:connector-curvature="0" />
      <path
         style="fill:#555656;stroke-width:0.35277775"
         d="m 201.73136,254.37118 c -6.19757,-1.9341 -8.87552,-9.14405 -5.52183,-14.86669 1.44293,-2.46216 4.26279,-4.2567 7.24354,-4.60972 l 1.74493,-0.20666 v 1.14235 c 0,1.89818 1.01281,3.55506 2.61907,4.2846 1.82117,0.82714 2.21746,0.82453 3.8849,-0.0256 0.74882,-0.38177 1.48426,-0.61825 1.63431,-0.52552 0.15005,0.0927 0.54442,0.8798 0.87638,1.74902 0.8034,2.10369 0.56844,6.11865 -0.47748,8.15891 -2.15513,4.20402 -7.38799,6.33977 -12.00382,4.89929 z m 0.65186,-12.89593 c 0.65235,-1.21892 0.40224,-2.71234 -0.58419,-3.48826 -1.23305,-0.96992 -2.43801,-0.92348 -3.49623,0.13475 -2.00137,2.00137 0.0766,5.27413 2.75568,4.34019 0.53868,-0.18778 1.13481,-0.63179 1.32474,-0.98668 z"
         id="path6049"
         inkscape:connector-curvature="0" />
    </g>
  </g>
</svg>
